<?xml version="1.0" encoding="utf-8"?>
<!-- Generator: Adobe Illustrator 24.0.1, SVG Export Plug-In . SVG Version: 6.00 Build 0)  -->
<svg version="1.1" xmlns="http://www.w3.org/2000/svg" xmlns:xlink="http://www.w3.org/1999/xlink" x="0px" y="0px"
	 viewBox="0 0 500 500" style="enable-background:new 0 0 500 500;" xml:space="preserve">
<style type="text/css">
	.st0{fill:none;}
	.st1{fill:#E6C7B1;}
	.st2{fill:none;stroke:#000000;stroke-width:2.5;stroke-linecap:round;stroke-linejoin:round;stroke-miterlimit:10;}
	.st3{font-family:'Montserrat-Bold';}
	.st4{font-size:24px;}
	.st5{font-size:18px;}
	.st6{letter-spacing:1;}
</style>
<g id="BACKGROUND">
	<rect class="st0" width="500" height="500"/>
</g>
<g id="OBJECTS">
	<path class="st1" d="M279.74,199.4c0.86,1.66,1.04,3.59,0.33,5.32c-2.99,7.28-6.65,17.59-6.82,25.13
		c-18.2,7.5-29.06,6.62-47.05-0.02h-0.01c-0.17-7.53-3.82-17.84-6.81-25.11c-0.71-1.73-0.53-3.66,0.33-5.32
		c4.01-7.76,0.97-16.01,0.97-16.01l9.39-3.58c-5.31,28.92,16.41,7.42,19.66,29.48c3.24-22.06,24.96-0.56,19.66-29.48l9.38,3.58
		C278.77,183.39,275.73,191.64,279.74,199.4z"/>
	<path class="st1" d="M334.74,321.39c0.63,6.45-4.43,12.05-10.92,12.05h-34.08h-40.99h-54.43H176.2c-6.53,0-11.62-5.66-10.93-12.15
		l0.13-1.19c19.45-59.21,44.47-76.15,56.53-80.98c0.74-0.3,1.36-0.71,1.89-1.22h0.01c5.27,2.53,9.97,4.35,14.38,5.49
		c3.65,0.95,7.1,1.44,10.52,1.48c3.78,0.06,7.51-0.43,11.43-1.43c4.55-1.17,9.34-3.03,14.72-5.54l0.39-0.37
		c0.58,0.69,1.33,1.22,2.24,1.59c12.15,4.87,37.42,22,56.94,82.17L334.74,321.39z"/>
	<g id="XMLID_00000037691187941278600680000001588345041082806947_">
		<path class="st2" d="M226.2,229.83c17.99,6.64,28.85,7.52,47.05,0.02c0.01-0.01,0.03-0.01,0.04-0.02"/>
		<path class="st2" d="M223.83,237.9c1.79-1.73,2.45-4.6,2.36-8.07c-0.17-7.53-3.82-17.84-6.81-25.11
			c-0.71-1.73-0.53-3.66,0.33-5.32c4.01-7.76,0.97-16.01,0.97-16.01l9.39-3.58c-5.31,28.92,16.41,7.42,19.66,29.48
			c3.24-22.06,24.96-0.56,19.66-29.48l9.38,3.58c0,0-3.04,8.25,0.97,16.01c0.86,1.66,1.04,3.59,0.33,5.32
			c-2.99,7.28-6.65,17.59-6.82,25.13c-0.07,3.14,0.46,5.79,1.9,7.55c0.04,0.04,0.07,0.09,0.12,0.13c0.58,0.69,1.33,1.22,2.24,1.59
			c12.15,4.87,37.42,22,56.94,82.17l0.29,0.1c0.63,6.45-4.43,12.05-10.92,12.05h-34.08h-40.99h-54.43H176.2
			c-6.53,0-11.62-5.66-10.93-12.15l0.13-1.19c19.45-59.21,44.47-76.15,56.53-80.98C222.67,238.82,223.29,238.41,223.83,237.9"/>
		<path class="st2" d="M223.82,237.9L223.82,237.9c5.28,2.53,9.98,4.35,14.39,5.49c3.65,0.95,7.1,1.44,10.52,1.48
			c3.78,0.06,7.51-0.43,11.43-1.43c4.55-1.17,9.34-3.03,14.72-5.54"/>
		<path class="st2" d="M236.82,243.01c-23.01,24.49-37.14,56.5-42.5,89.67"/>
		<path class="st2" d="M262.83,242.68c9.05,8.36,26.56,52.04,30.77,90.03"/>
		<path class="st2" d="M248.71,245.68c1.46,28.98,1.48,58.04,0.04,87.03"/>
	</g>
	<path class="st2" d="M323.82,333.44H176.19c-6.52,0-11.62-5.66-10.92-12.15l0.13-1.19l16.11-150.09
		c0.82-7.78,7.4-13.68,15.21-13.68h106.55c7.83,0,14.39,5.9,15.23,13.68l16.23,151.28c0,0.04,0.01,0.06,0.01,0.1
		C335.37,327.84,330.31,333.44,323.82,333.44z"/>
	<path class="st2" d="M218.42,156.33v-19.19c0-17.44,14.14-31.58,31.58-31.58h0c17.44,0,31.58,14.14,31.58,31.58v19.19"/>
</g>
<g id="TEXTS">
	<text transform="matrix(1 0 0 1 99.5338 360.5049)" class="st3 st4">La tiendita de marce</text>
	<text transform="matrix(1 0 0 1 153.6414 388.4749)" class="st3 st5 st6">chlothin store</text>
</g>
</svg>
