<svg xmlns="http://www.w3.org/2000/svg" viewBox="0 0 500 500"><title>logo</title><g id="BACKGROUND"><rect width="500" height="500" fill="none"/></g><g id="OBJECTS"><path d="M279.74,199.4a6.32,6.32,0,0,1,.33,5.32c-3,7.28-6.65,17.59-6.82,25.13-18.2,7.5-29.06,6.62-47.05,0h0c-.17-7.53-3.82-17.84-6.81-25.11a6.32,6.32,0,0,1,.33-5.32c4-7.76,1-16,1-16l9.39-3.58c-5.31,28.92,16.41,7.42,19.66,29.48,3.24-22.06,25-.56,19.66-29.48l9.38,3.58S275.73,191.64,279.74,199.4Z" fill="#e6c7b1"/><path d="M334.74,321.39a11,11,0,0,1-10.92,12.05H176.2a11,11,0,0,1-10.93-12.15l.13-1.19c19.45-59.21,44.47-76.15,56.53-81a5.86,5.86,0,0,0,1.89-1.22h0a79.49,79.49,0,0,0,14.38,5.49,43.42,43.42,0,0,0,10.52,1.48,42.94,42.94,0,0,0,11.43-1.43,85.61,85.61,0,0,0,14.72-5.54l.39-.37a5.65,5.65,0,0,0,2.24,1.59c12.15,4.87,37.42,22,56.94,82.17Z" fill="#e6c7b1"/><path d="M226.2,229.83c18,6.64,28.85,7.52,47.05,0l0,0" fill="none" stroke="#000" stroke-linecap="round" stroke-linejoin="round" stroke-width="2.5"/><path d="M223.83,237.9c1.79-1.73,2.45-4.6,2.36-8.07-.17-7.53-3.82-17.84-6.81-25.11a6.32,6.32,0,0,1,.33-5.32c4-7.76,1-16,1-16l9.39-3.58c-5.31,28.92,16.41,7.42,19.66,29.48,3.24-22.06,25-.56,19.66-29.48l9.38,3.58s-3,8.25,1,16a6.32,6.32,0,0,1,.33,5.32c-3,7.28-6.65,17.59-6.82,25.13-.07,3.14.46,5.79,1.9,7.55a1.42,1.42,0,0,0,.12.13,5.65,5.65,0,0,0,2.24,1.59c12.15,4.87,37.42,22,56.94,82.17l.29.1a11,11,0,0,1-10.92,12.05H176.2a11,11,0,0,1-10.93-12.15l.13-1.19c19.45-59.21,44.47-76.15,56.53-81a5.86,5.86,0,0,0,1.89-1.22" fill="none" stroke="#000" stroke-linecap="round" stroke-linejoin="round" stroke-width="2.5"/><path d="M223.82,237.9h0a79.49,79.49,0,0,0,14.38,5.49,43.42,43.42,0,0,0,10.52,1.48,42.94,42.94,0,0,0,11.43-1.43,85.61,85.61,0,0,0,14.72-5.54" fill="none" stroke="#000" stroke-linecap="round" stroke-linejoin="round" stroke-width="2.5"/><path d="M236.82,243c-23,24.49-37.14,56.5-42.5,89.67" fill="none" stroke="#000" stroke-linecap="round" stroke-linejoin="round" stroke-width="2.5"/><path d="M262.83,242.68c9.06,8.35,26.56,52,30.77,90" fill="none" stroke="#000" stroke-linecap="round" stroke-linejoin="round" stroke-width="2.5"/><path d="M248.71,245.68q2.19,43.47,0,87" fill="none" stroke="#000" stroke-linecap="round" stroke-linejoin="round" stroke-width="2.5"/><path d="M323.82,333.44H176.19a11,11,0,0,1-10.92-12.15l.13-1.19L181.51,170a15.3,15.3,0,0,1,15.21-13.68H303.27A15.32,15.32,0,0,1,318.5,170l16.23,151.28s0,.06,0,.1A11,11,0,0,1,323.82,333.44Z" fill="none" stroke="#000" stroke-linecap="round" stroke-linejoin="round" stroke-width="2.5"/><path d="M218.42,156.33V137.15A31.58,31.58,0,0,1,250,105.56h0a31.58,31.58,0,0,1,31.58,31.59v19.18" fill="none" stroke="#000" stroke-linecap="round" stroke-linejoin="round" stroke-width="2.5"/></g><g id="TEXTS"><path d="M101.87,343.7h3.89v13.64h8.43v3.16H101.87Z"/><path d="M127.58,356.9h-7.8l-1.49,3.6h-4l7.48-16.8h3.84l7.52,16.8h-4.08ZM126.35,354l-2.66-6.43L121,354Z"/><path d="M145.17,346.87h-5.38V343.7h14.64v3.17h-5.37V360.5h-3.89Z"/><path d="M156.52,343.7h3.89v16.8h-3.89Z"/><path d="M177.4,357.38v3.12h-13V343.7h12.7v3.12h-8.83v3.65h7.8v3h-7.8v3.88Z"/><path d="M195.91,343.7v16.8h-3.2l-8.37-10.2v10.2H180.5V343.7h3.21l8.36,10.2V343.7Z"/><path d="M199.89,343.7h7.63c5.5,0,9.27,3.32,9.27,8.4s-3.77,8.4-9.27,8.4h-7.63Zm7.44,13.61c3.34,0,5.52-2,5.52-5.21s-2.18-5.2-5.52-5.2h-3.55v10.41Z"/><path d="M219.71,343.7h3.89v16.8h-3.89Z"/><path d="M231.06,346.87h-5.37V343.7h14.64v3.17H235V360.5h-3.89Z"/><path d="M252.64,356.9h-7.8l-1.49,3.6h-4l7.49-16.8h3.84l7.51,16.8h-4.08ZM251.42,354l-2.67-6.43L246.09,354Z"/><path d="M266.75,343.7h7.63c5.5,0,9.27,3.32,9.27,8.4s-3.77,8.4-9.27,8.4h-7.63Zm7.44,13.61c3.34,0,5.52-2,5.52-5.21s-2.18-5.2-5.52-5.2h-3.55v10.41Z"/><path d="M299.58,357.38v3.12h-13V343.7h12.69v3.12h-8.83v3.65h7.8v3h-7.8v3.88Z"/><path d="M324.76,360.5l0-10.08-4.95,8.31H318l-4.92-8.09v9.86h-3.65V343.7h3.22L319,354.14l6.19-10.44h3.19l.05,16.8Z"/><path d="M343.46,356.9h-7.8l-1.49,3.6h-4l7.49-16.8h3.84L349,360.5h-4.08ZM342.23,354l-2.66-6.43L336.9,354Z"/><path d="M361.48,360.5l-3.24-4.68h-3.58v4.68h-3.89V343.7h7.28c4.49,0,7.29,2.33,7.29,6.1a5.45,5.45,0,0,1-3.45,5.3l3.77,5.4Zm-3.65-13.63h-3.17v5.86h3.17c2.38,0,3.58-1.11,3.58-2.93S360.21,346.87,357.83,346.87Z"/><path d="M367.36,352.1c0-5.06,3.89-8.68,9.12-8.68a8.66,8.66,0,0,1,6.91,3l-2.49,2.31a5.41,5.41,0,0,0-4.23-2,5.38,5.38,0,1,0,0,10.75,5.37,5.37,0,0,0,4.23-2l2.49,2.3a8.61,8.61,0,0,1-6.93,3C371.25,360.79,367.36,357.17,367.36,352.1Z"/><path d="M399,357.38v3.12H386V343.7H398.7v3.12h-8.83v3.65h7.8v3h-7.8v3.88Z"/><path d="M154.72,382.17c0-3.8,2.92-6.52,6.84-6.52a6.52,6.52,0,0,1,5.19,2.24l-1.87,1.73a4,4,0,0,0-3.17-1.48,4,4,0,1,0,0,8.07,4,4,0,0,0,3.17-1.5l1.87,1.73a6.93,6.93,0,0,1-12-4.27Z"/><path d="M182.07,375.87v12.6h-2.92v-5.16h-5.73v5.16h-2.91v-12.6h2.91v5h5.73v-5Z"/><path d="M186.85,375.87h2.92V386.1h6.32v2.37h-9.24Z"/><path d="M198.51,382.17c0-3.74,2.92-6.52,6.9-6.52s6.9,2.76,6.9,6.52-2.94,6.52-6.9,6.52S198.51,385.92,198.51,382.17Zm10.84,0a3.94,3.94,0,1,0-3.94,4A3.84,3.84,0,0,0,209.35,382.17Z"/><path d="M218.73,378.25h-4v-2.38h11v2.38h-4v10.22h-2.92Z"/><path d="M240.6,375.87v12.6h-2.91v-5.16H232v5.16H229v-12.6H232v5h5.73v-5Z"/><path d="M245.39,375.87h2.91v12.6h-2.91Z"/><path d="M264.65,375.87v12.6h-2.4L256,380.82v7.65h-2.88v-12.6h2.41l6.27,7.65v-7.65Z"/><path d="M275.34,387.23l1-2.19a7.42,7.42,0,0,0,4.16,1.31c1.73,0,2.43-.58,2.43-1.35,0-2.36-7.33-.74-7.33-5.42,0-2.14,1.73-3.93,5.31-3.93a8.44,8.44,0,0,1,4.38,1.12l-.9,2.22a7.09,7.09,0,0,0-3.5-1c-1.72,0-2.39.64-2.39,1.44,0,2.32,7.33.72,7.33,5.34,0,2.11-1.75,3.91-5.35,3.91A8.92,8.92,0,0,1,275.34,387.23Z"/><path d="M292,378.25h-4v-2.38h11v2.38h-4v10.22H292Z"/><path d="M301.38,382.17c0-3.74,2.92-6.52,6.9-6.52s6.9,2.76,6.9,6.52-2.94,6.52-6.9,6.52S301.38,385.92,301.38,382.17Zm10.84,0a3.94,3.94,0,1,0-3.94,4A3.84,3.84,0,0,0,312.22,382.17Z"/><path d="M327.2,388.47,324.77,385h-2.69v3.51h-2.91v-12.6h5.45c3.37,0,5.48,1.75,5.48,4.57a4.1,4.1,0,0,1-2.6,4l2.83,4.05Zm-2.74-10.22h-2.38v4.39h2.38c1.78,0,2.68-.83,2.68-2.2S326.24,378.25,324.46,378.25Z"/><path d="M344,386.13v2.34H334.2v-12.6h9.52v2.34H337.1V381H343v2.27H337.1v2.91Z"/></g></svg>